<svg width="30" height="40" viewBox="0 0 30 40" fill="none" xmlns="http://www.w3.org/2000/svg">
<g clip-path="url(#clip0_156_1261)">
<g clip-path="url(#clip1_156_1261)">
<path d="M28.2352 23.6364V11.7125C28.2352 10.0555 27.5042 8.48839 26.2484 7.45327L23.8235 5.4546L20.8619 3.0135C19.9231 2.23976 18.7567 1.81824 17.5546 1.81824H7.05877C4.1349 1.81824 1.76465 4.26032 1.76465 7.27278V32.7273C1.76465 35.7398 4.1349 38.1819 7.05877 38.1819H22.9411C25.865 38.1819 28.2352 35.7398 28.2352 32.7273V30.9091" stroke="#1E4391" stroke-width="3" stroke-linecap="round"/>
<path d="M18.5294 8.63635V3.63635L26.0294 10.4545H20.2941C19.3195 10.4545 18.5294 9.64053 18.5294 8.63635Z" fill="#1E4391" stroke="#1E4391" stroke-width="3" stroke-linecap="round"/>
<path d="M8.14245 20.1439C8.97244 20.1439 9.65696 20.4603 10.1959 21.0931C10.7404 21.7196 11.0124 22.5186 11.0124 23.4904C11.0124 24.4621 10.7404 25.2676 10.1959 25.9069C9.65696 26.5397 8.97244 26.8561 8.14245 26.8561H6V20.1439H8.14245ZM8.11014 25.5041C8.59516 25.5041 8.9913 25.3156 9.29854 24.9384C9.60579 24.5611 9.7593 24.0786 9.7593 23.4904C9.7593 22.9022 9.60579 22.4227 9.29854 22.052C8.9913 21.6814 8.59516 21.4959 8.11014 21.4959H7.22887V25.5041H8.11014ZM14.6765 27C13.8142 27 13.0947 26.6676 12.5179 26.0027C11.9467 25.3315 11.6609 24.4972 11.6609 23.5C11.6609 22.5027 11.9467 21.6717 12.5179 21.0069C13.0947 20.3356 13.8142 20 14.6765 20C15.2425 20 15.7545 20.1534 16.2126 20.4603C16.6761 20.7608 17.0372 21.1795 17.2959 21.7165C17.5546 22.2471 17.684 22.8416 17.684 23.5C17.684 24.5036 17.3984 25.3379 16.827 26.0027C16.2557 26.6676 15.5389 27 14.6765 27ZM14.6765 25.6287C15.0108 25.6287 15.3125 25.5392 15.582 25.3602C15.8515 25.1749 16.0617 24.9191 16.2126 24.5931C16.369 24.2671 16.4471 23.9027 16.4471 23.5C16.4471 22.8926 16.2772 22.3876 15.9377 21.9849C15.6035 21.5759 15.1831 21.3713 14.6765 21.3713C14.1753 21.3713 13.7521 21.5759 13.4073 21.9849C13.0677 22.3876 12.8979 22.8926 12.8979 23.5C12.8979 24.1074 13.0677 24.6156 13.4073 25.0246C13.7521 25.4274 14.1753 25.6287 14.6765 25.6287ZM21.2432 27C20.6989 27 20.203 26.8497 19.7556 26.5494C19.3083 26.2425 18.9579 25.8238 18.7046 25.2931C18.4514 24.7561 18.3247 24.1616 18.3247 23.5096C18.3247 22.5124 18.6022 21.6781 19.1573 21.0069C19.7179 20.3356 20.4132 20 21.2432 20C21.9331 20 22.5286 20.2461 23.0298 20.7384C23.5311 21.2306 23.8491 21.8763 23.9839 22.6754H22.755C22.6796 22.4133 22.5691 22.1862 22.4235 21.9945C22.2779 21.7964 22.1028 21.6461 21.898 21.5439C21.6986 21.4351 21.4804 21.3809 21.2432 21.3809C20.7635 21.3809 20.3619 21.5854 20.0386 21.9945C19.7206 22.3972 19.5616 22.9022 19.5616 23.5096C19.5616 24.1105 19.7206 24.6124 20.0386 25.0151C20.3619 25.4177 20.7635 25.6191 21.2432 25.6191C21.615 25.6191 21.9358 25.4945 22.2053 25.2452C22.4748 24.9959 22.6607 24.657 22.7631 24.2287H24C23.8706 25.0597 23.5527 25.731 23.0461 26.2425C22.5448 26.7475 21.9439 27 21.2432 27Z" fill="#1E4391"/>
</g>
</g>
<defs>
<clipPath id="clip0_156_1261">
<rect width="30" height="40" fill="white"/>
</clipPath>
<clipPath id="clip1_156_1261">
<rect width="30" height="40" fill="white"/>
</clipPath>
</defs>
</svg>
