<svg width="13" height="12" viewBox="0 0 13 12" fill="none" xmlns="http://www.w3.org/2000/svg">
<g clip-path="url(#clip0_802_42637)">
<path d="M3.57107 4.80005H1.62916C1.33678 4.80005 1.1001 5.09553 1.1001 5.46005V10.74C1.1001 11.1046 1.33712 11.4 1.62951 11.4H3.57069C3.86308 11.4 4.1001 11.1046 4.1001 10.74V5.46005C4.1001 5.09553 3.86345 4.80005 3.57107 4.80005Z" stroke="#F2F2F2"/>
<path d="M4.19208 5.45608H4.28406M4.28406 5.45608H4.79653C4.93378 5.45608 5.05963 5.36631 5.12294 5.22322L7.01437 0.949423C7.19995 0.530112 7.69268 0.47742 7.93963 0.850477L8.05521 1.02508L8.24741 1.29606C8.4175 1.53589 8.49102 1.85042 8.44904 2.15868L8.21536 3.87475C8.17958 4.13741 8.35226 4.37534 8.57864 4.37534H10.7961C11.4792 4.37534 11.9983 5.09717 11.8843 5.88863L11.2202 10.4997C11.1453 11.0196 10.7621 11.4001 10.3133 11.4001H5.65773C5.48742 11.4001 5.32666 11.3077 5.2221 11.1498L4.85442 10.5943C4.78472 10.489 4.67754 10.4274 4.564 10.4274H4.1001V5.45608H4.28406Z" stroke="white"/>
</g>
<defs>
<clipPath id="clip0_802_42637">
<rect width="12" height="12" fill="white" transform="translate(0.5)"/>
</clipPath>
</defs>
</svg>
