<svg width="20" height="20" viewBox="0 0 20 20" fill="none" xmlns="http://www.w3.org/2000/svg">
<path fill-rule="evenodd" clip-rule="evenodd" d="M5.29395 0.967742C5.29395 1.50221 4.8989 1.93548 4.41162 1.93548L2.05877 1.93548C1.89631 1.93548 1.76466 2.07991 1.76466 2.25806L1.76466 17.7419C1.76466 17.9201 1.89631 18.0645 2.05877 18.0645H4.41162C4.8989 18.0645 5.29395 18.4978 5.29395 19.0323C5.29395 19.5667 4.8989 20 4.41162 20H2.05877C0.921753 20 2.19345e-05 18.989 2.19345e-05 17.7419L2.19345e-05 2.25806C2.19345e-05 1.01097 0.921753 0 2.05877 0L4.41162 0C4.8989 0 5.29395 0.433277 5.29395 0.967742Z" fill="#A7A7A7"/>
<path d="M20 8.37145C20 7.70783 19.5375 7.15412 18.9347 7.09615C16.8727 6.89791 14.8007 6.86294 12.7346 6.99142C12.7185 6.67272 12.6999 6.35415 12.6787 6.03574L12.551 4.11379C12.5018 3.37276 11.7484 2.95852 11.1776 3.35858C9.22228 4.72895 7.52246 6.49471 6.16862 8.56177L5.66429 9.3317C5.40277 9.73106 5.40277 10.269 5.66429 10.6683L6.16862 11.4383C7.52246 13.5054 9.22228 15.2711 11.1776 16.6415C11.7484 17.0415 12.5018 16.6273 12.551 15.8863L12.6787 13.9643C12.6999 13.6459 12.7185 13.3273 12.7346 13.0086C14.8007 13.1371 16.8727 13.1022 18.9347 12.904C19.5375 12.8459 20 12.2922 20 11.6286V8.37145Z" fill="#A7A7A7"/>
</svg>
