<svg width="17" height="18" viewBox="0 0 17 18" fill="none" xmlns="http://www.w3.org/2000/svg">
<path d="M6 10.9452C6 12.3785 8.23833 13.5401 11 13.5401C13.7617 13.5401 16 12.3785 16 10.9452C16 9.51202 13.7617 8.3504 11 8.3504C8.23833 8.3504 6 9.51202 6 10.9452Z" stroke="#1E4391" stroke-width="2" stroke-linecap="round" stroke-linejoin="round"/>
<path d="M6 10.9453V14.405C6 15.8374 8.23833 16.9999 11 16.9999C13.7617 16.9999 16 15.8374 16 14.405V10.9453" stroke="#1E4391" stroke-width="2" stroke-linecap="round" stroke-linejoin="round"/>
<path d="M1 4.0255C1 4.95272 1.95333 5.80901 3.5 6.27262C5.04667 6.73623 6.95333 6.73623 8.5 6.27262C10.0467 5.80901 11 4.95272 11 4.0255C11 3.09828 10.0467 2.24198 8.5 1.77837C6.95333 1.31476 5.04667 1.31476 3.5 1.77837C1.95333 2.24198 1 3.09828 1 4.0255Z" stroke="#1E4391" stroke-width="2" stroke-linecap="round" stroke-linejoin="round"/>
<path d="M1 4.0257V12.6751C1 13.4432 1.64333 13.9293 2.66667 14.405" stroke="#1E4391" stroke-width="2" stroke-linecap="round" stroke-linejoin="round"/>
<path d="M1 8.3504C1 9.11847 1.64333 9.60457 2.66667 10.0803" stroke="#1E4391" stroke-width="2" stroke-linecap="round" stroke-linejoin="round"/>
</svg>
