<svg width="17" height="23" viewBox="0 0 17 23" fill="none" xmlns="http://www.w3.org/2000/svg">
<path fill-rule="evenodd" clip-rule="evenodd" d="M4 15C4 14.4477 4.44772 14 5 14H12C12.5523 14 13 14.4477 13 15C13 15.5523 12.5523 16 12 16H5C4.44772 16 4 15.5523 4 15Z" fill="#1E4391"/>
<path fill-rule="evenodd" clip-rule="evenodd" d="M4 7C4 6.44772 4.44772 6 5 6H12C12.5523 6 13 6.44772 13 7C13 7.55228 12.5523 8 12 8H5C4.44772 8 4 7.55228 4 7Z" fill="#1E4391"/>
<path fill-rule="evenodd" clip-rule="evenodd" d="M4 11C4 10.4477 4.44772 10 5 10H12C12.5523 10 13 10.4477 13 11C13 11.5523 12.5523 12 12 12H5C4.44772 12 4 11.5523 4 11Z" fill="#1E4391"/>
<path fill-rule="evenodd" clip-rule="evenodd" d="M4.26756 3H3C2.44772 3 2 3.44772 2 4V17C2 17.5523 2.44772 18 3 18H14C14.5523 18 15 17.5523 15 17V4C15 3.44772 14.5523 3 14 3H12.7324C12.3866 3.5978 11.7403 4 11 4H6C5.25972 4 4.61337 3.5978 4.26756 3ZM12.7324 1H14C15.6569 1 17 2.34315 17 4V17C17 18.6569 15.6569 20 14 20H3C1.34315 20 0 18.6569 0 17V4C0 2.34315 1.34315 1 3 1H4.26756C4.61337 0.402199 5.25972 0 6 0H11C11.7403 0 12.3866 0.402199 12.7324 1Z" fill="#1E4391"/>
</svg>
