<svg width="20" height="20" viewBox="0 0 20 20" fill="none" xmlns="http://www.w3.org/2000/svg">
<path d="M17.2036 0H2.79642C2.0554 0.00206619 1.34532 0.297352 0.821335 0.821335C0.297352 1.34532 0.00206619 2.0554 0 2.79642V17.2036C0.00206619 17.9446 0.297352 18.6547 0.821335 19.1787C1.34532 19.7026 2.0554 19.9979 2.79642 20H17.2036C17.944 19.9959 18.6529 19.6999 19.1764 19.1764C19.6999 18.6529 19.9959 17.944 20 17.2036V2.79642C19.9959 2.05603 19.6999 1.34714 19.1764 0.823596C18.6529 0.300054 17.944 0.00411173 17.2036 0ZM6.31991 18.8814H2.79642C2.35143 18.8814 1.92466 18.7047 1.61 18.39C1.29534 18.0753 1.11857 17.6486 1.11857 17.2036V13.7248H6.31991V18.8814ZM6.31991 12.6063H1.11857V7.39374H6.31991V12.6063ZM6.31991 6.27517H1.11857V2.79642C1.11857 2.35143 1.29534 1.92466 1.61 1.61C1.92466 1.29534 2.35143 1.11857 2.79642 1.11857H6.31991V6.27517ZM18.8814 17.2036C18.8782 17.6476 18.7004 18.0725 18.3864 18.3864C18.0725 18.7004 17.6476 18.8782 17.2036 18.8814H7.43848V13.7248H18.8814V17.2036ZM18.8814 12.6063H7.43848V7.39374H18.8814V12.6063ZM18.8814 6.27517H7.43848V1.11857H17.2036C17.6476 1.12179 18.0725 1.2996 18.3864 1.61356C18.7004 1.92752 18.8782 2.35242 18.8814 2.79642V6.27517Z" fill="#7A7A7A"/>
</svg>
