<svg width="16" height="17" viewBox="0 0 16 17" fill="none" xmlns="http://www.w3.org/2000/svg">
<g clip-path="url(#clip0_166_1067)">
<path fill-rule="evenodd" clip-rule="evenodd" d="M7.11513 0.979573C7.11513 0.56963 7.44747 0.237305 7.8574 0.237305C8.26735 0.237305 8.59967 0.56963 8.59967 0.979573V10.9543L11.5341 8.01992C11.824 7.73004 12.2939 7.73004 12.5838 8.01992C12.8737 8.30978 12.8737 8.77977 12.5838 9.06963L8.52478 13.1287C8.46144 13.192 8.38951 13.2415 8.31274 13.2772C8.18702 13.3749 8.02902 13.4332 7.8574 13.4332C7.63033 13.4332 7.42707 13.3312 7.2909 13.1706C7.27532 13.1573 7.26014 13.1434 7.24543 13.1287L3.18639 9.06963C2.89653 8.77975 2.89653 8.30978 3.18639 8.0199C3.47627 7.73004 3.94624 7.73004 4.23612 8.0199L7.11513 10.8989V0.979573Z" fill="white"/>
<path fill-rule="evenodd" clip-rule="evenodd" d="M10.8972 5.10311C10.8972 5.51305 11.2296 5.84538 11.6395 5.84538H12.5361C13.5382 5.84538 14.3505 6.65773 14.3505 7.65981V12.7825C14.3505 13.7846 13.5382 14.5969 12.5361 14.5969H3.29897C2.29689 14.5969 1.48454 13.7846 1.48454 12.7825V7.65981C1.48454 6.65773 2.29689 5.84538 3.29897 5.84538H4.19555C4.60549 5.84538 4.93781 5.51305 4.93781 5.10311C4.93781 4.69316 4.60549 4.36084 4.19555 4.36084H3.29897C1.477 4.36084 0 5.83784 0 7.65981V12.7825C0 14.6045 1.477 16.0814 3.29897 16.0814H12.5361C14.3581 16.0814 15.8351 14.6045 15.8351 12.7825V7.65981C15.8351 5.83784 14.3581 4.36084 12.5361 4.36084H11.6395C11.2296 4.36084 10.8972 4.69316 10.8972 5.10311Z" fill="white"/>
</g>
<defs>
<clipPath id="clip0_166_1067">
<rect width="15.8351" height="16" fill="white" transform="translate(0 0.237305)"/>
</clipPath>
</defs>
</svg>
