<svg width="30" height="40" viewBox="0 0 30 40" fill="none" xmlns="http://www.w3.org/2000/svg">
<g clip-path="url(#clip0_156_1162)">
<g clip-path="url(#clip1_156_1162)">
<path d="M28.2352 23.6364V11.7125C28.2352 10.0555 27.5042 8.48839 26.2484 7.45327L23.8235 5.4546L20.8619 3.0135C19.9231 2.23976 18.7567 1.81824 17.5546 1.81824H7.05877C4.1349 1.81824 1.76465 4.26032 1.76465 7.27278V32.7273C1.76465 35.7398 4.1349 38.1819 7.05877 38.1819H22.9411C25.865 38.1819 28.2352 35.7398 28.2352 32.7273V30.9091" stroke="#EF302B" stroke-width="3" stroke-linecap="round"/>
<path d="M8.71826 20C9.43231 20 10.0285 20.23 10.5069 20.69C10.9852 21.1433 11.2243 21.7166 11.2243 22.41C11.2243 23.0966 10.9852 23.67 10.5069 24.13C10.0285 24.5834 9.43231 24.8101 8.71826 24.8101H7.53597V27H6V20H8.71826ZM8.65763 23.41C8.96078 23.41 9.2033 23.3166 9.38519 23.13C9.57378 22.9434 9.66813 22.7034 9.66813 22.41C9.66813 22.1166 9.57378 21.8766 9.38519 21.69C9.2033 21.4966 8.96078 21.4 8.65763 21.4H7.53597V23.41H8.65763ZM14.9639 20C16.0013 20 16.8569 20.3301 17.5306 20.99C18.2109 21.6434 18.5512 22.4766 18.5512 23.49C18.5512 24.5033 18.2109 25.3433 17.5306 26.01C16.8569 26.6699 16.0013 27 14.9639 27H12.2861V20H14.9639ZM14.9235 25.59C15.5298 25.59 16.025 25.3934 16.409 25C16.793 24.6066 16.9849 24.1034 16.9849 23.49C16.9849 22.8766 16.793 22.3766 16.409 21.99C16.025 21.6033 15.5298 21.41 14.9235 21.41H13.8221V25.59H14.9235ZM24 21.41H21.3121V22.95H23.7373V24.32H21.3121V27H19.7761V20H24V21.41Z" fill="#EF302B"/>
<path d="M18.5294 8.63635V3.63635L26.0294 10.4545H20.2941C19.3195 10.4545 18.5294 9.64053 18.5294 8.63635Z" fill="#FF0014" stroke="#EF302B" stroke-width="3" stroke-linecap="round"/>
</g>
</g>
<defs>
<clipPath id="clip0_156_1162">
<rect width="30" height="40" fill="white"/>
</clipPath>
<clipPath id="clip1_156_1162">
<rect width="30" height="40" fill="white"/>
</clipPath>
</defs>
</svg>
